<?xml version="1.0" standalone="no"?>
<!DOCTYPE svg PUBLIC "-//W3C//DTD SVG 20010904//EN"
 "http://www.w3.org/TR/2001/REC-SVG-20010904/DTD/svg10.dtd">
<svg version="1.0" xmlns="http://www.w3.org/2000/svg"
 width="512.000000pt" height="512.000000pt" viewBox="0 0 512.000000 512.000000"
 preserveAspectRatio="xMidYMid meet">
<metadata>
Created by potrace 1.16, written by Peter Selinger 2001-2019
</metadata>
<g transform="translate(0.000000,512.000000) scale(0.100000,-0.100000)"
fill="#fff" stroke="none">
<path d="M1983 4955 c-94 -21 -194 -77 -261 -149 -113 -121 -142 -209 -142
-423 l0 -143 -347 0 c-192 0 -379 -5 -418 -10 -188 -27 -358 -174 -415 -358
-20 -63 -20 -96 -20 -1671 0 -1449 2 -1613 16 -1662 42 -140 131 -253 250
-316 124 -66 64 -63 1299 -63 1235 0 1174 -3 1299 63 77 40 172 135 209 209
46 92 57 149 57 311 l0 147 373 0 c296 0 385 3 436 15 174 41 318 177 377 355
18 52 19 125 22 1290 2 679 0 1255 -3 1280 -5 44 -17 56 -548 583 -298 296
-552 542 -565 548 -14 5 -329 9 -790 8 -605 0 -780 -3 -829 -14z m1477 -508
c0 -332 3 -354 62 -472 38 -74 124 -160 204 -202 109 -58 146 -63 476 -63
l298 0 0 -1168 c0 -1298 4 -1223 -68 -1317 -27 -36 -57 -60 -106 -85 l-69 -35
-373 -3 -374 -4 0 1018 0 1019 -550 550 -550 550 -311 3 -311 3 4 137 c3 111
8 146 25 183 38 84 116 153 203 180 14 4 343 8 733 8 l707 1 0 -303z m698
-525 c-102 -1 -205 2 -234 8 -116 24 -220 124 -243 231 -6 28 -11 136 -11 242
l0 192 335 -335 335 -335 -182 -3z m-1898 -211 c0 -280 2 -315 20 -372 38
-124 140 -246 255 -304 101 -51 136 -55 463 -55 l302 0 0 -1168 c0 -1303 4
-1227 -70 -1321 -28 -35 -58 -59 -107 -83 l-68 -33 -1110 0 -1110 0 -55 26
c-77 36 -111 68 -151 141 l-34 63 0 1585 c0 1535 1 1587 19 1634 32 84 116
159 206 187 14 4 343 8 733 8 l707 1 0 -309z m843 -519 c-21 -2 -119 -2 -218
0 -162 3 -185 6 -226 26 -71 35 -125 87 -156 150 -28 56 -28 59 -31 277 l-3
220 336 -335 335 -335 -37 -3z"/>
<path d="M3722 2555 c-72 -32 -78 -144 -9 -185 29 -18 51 -20 215 -20 115 0
191 4 205 11 39 20 57 51 57 100 0 38 -5 50 -31 75 l-30 29 -187 2 c-146 2
-194 0 -220 -12z"/>
<path d="M3743 1833 c-30 -6 -71 -49 -78 -84 -8 -37 21 -99 55 -116 17 -9 82
-13 208 -13 234 0 262 12 262 109 0 31 -7 49 -29 73 l-29 33 -184 2 c-100 0
-193 -1 -205 -4z"/>
<path d="M964 2560 c-77 -31 -86 -151 -14 -193 25 -15 83 -17 573 -17 330 0
556 4 571 10 30 11 66 65 66 98 0 13 -7 37 -16 53 -30 59 -31 59 -621 58 -296
0 -548 -4 -559 -9z"/>
<path d="M964 1826 c-17 -8 -39 -24 -48 -37 -33 -48 -12 -134 39 -157 36 -17
1946 -17 1978 -1 55 28 75 108 41 158 -37 52 -11 51 -1031 51 -776 -1 -954 -3
-979 -14z"/>
<path d="M929 1071 c-50 -51 -36 -137 28 -170 15 -8 296 -11 988 -11 842 0
970 2 995 15 37 19 50 43 50 95 0 33 -6 48 -29 71 l-29 29 -987 0 -987 0 -29
-29z"/>
</g>
</svg>
